<svg viewBox="0 0 64 64" xmlns="http://www.w3.org/2000/svg"><path d="M14.078 13.35c5.32-.46 8.15 1.45 9.26 2.49a19.236 19.236 0 0 0 8.51 2.06 17.868 17.868 0 0 0 8.7-2.28c1.24-1.05 4.04-2.7 9.02-2.27a1.812 1.812 0 0 0 .32-3.61 16.025 16.025 0 0 0-10.67 2.37l1.97-6.19a2.545 2.545 0 0 0-2.43-3.31h-13.86a2.54 2.54 0 0 0-2.41 3.37l2.14 6.27c-2.03-1.43-5.52-2.98-10.86-2.51a1.812 1.812 0 1 0 .31 3.61Z" fill="#09eb1c" class="fill-000000 fill-f5d103"></path><path d="m58.768 51.05-3.26-6.81a11.735 11.735 0 0 1-1.14-5.31c.12-5.52-.79-18.25-11.17-21.72a20.84 20.84 0 0 1-11.23 3.35 22.678 22.678 0 0 1-11.48-3.24c-10.09 3.61-10.97 16.15-10.85 21.61a11.747 11.747 0 0 1-1.15 5.31l-3.25 6.81a7.06 7.06 0 0 0 6.37 10.11h40.78a7.066 7.066 0 0 0 6.38-10.11ZM33.72 49.977h-.395v3.31a1.5 1.5 0 1 1-3 0v-3.31h-4.384a1.5 1.5 0 0 1 0-3h7.779a2.49 2.49 0 0 0 0-4.98h-3.49a5.79 5.79 0 0 1 0-11.58h.095v-3.663a1.5 1.5 0 0 1 3 0v3.664h3.688a1.5 1.5 0 1 1 0 3H30.23a2.79 2.79 0 0 0 0 5.579h3.49a5.49 5.49 0 0 1 0 10.98Z" fill="#09eb1c" class="fill-000000 fill-f5d103"></path></svg>