<svg viewBox="0 0 512 512" xml:space="preserve" xmlns="http://www.w3.org/2000/svg" enable-background="new 0 0 512 512"><path d="M203.4 166.6c-.2 0-.4 0-.6-.1-10.3-2-18.4-3.4-27-4.9-8.8-1.5-18-3.1-30-5.4-7.4-1.4-15.1-2.9-22.3-5.9-16.7-7-31.6-22.3-38.8-39.9-10.3-25.3-5.9-51.7 11.6-68.7 23.6-23 66.3-22.1 93.9-7.8 21.6 11.2 35.2 32.9 46.2 50.3 14.2 22.7 25.2 49.4 31.7 77.2.4 1.6-.6 3.2-2.2 3.6-1.6.4-3.2-.6-3.6-2.2-6.4-27.2-17.1-53.2-31-75.4-10.5-16.8-23.7-37.8-43.8-48.2-25.7-13.3-65.3-14.4-87 6.8-15.7 15.3-19.6 39.1-10.2 62.2 6.6 16.2 20.2 30.2 35.5 36.7 6.6 2.8 14 4.2 21.1 5.6 11.9 2.3 21 3.9 29.8 5.4 8.6 1.5 16.7 2.9 27.1 4.9 1.6.3 2.7 1.9 2.4 3.5-.2 1.3-1.4 2.3-2.8 2.3z" fill="#ffad46" class="fill-000000"></path><path d="M215.8 166.7c-.4 0-.7-.1-1.1-.2-6.8-2.6-13.1-6.1-19.1-9.6-2.5-1.4-5.1-2.9-7.7-4.3-4.4-2.3-10.2-5.1-16.3-8-8.9-4.2-18.1-8.5-24.5-12.3-13.9-8.3-23.1-23.5-22.9-37.7.1-11.7 6.4-21.8 17.8-28.3 9.6-5.5 25.9-2 30.7-.8 18 4.5 31.5 21.3 39.5 34.5 4.9 8 10.1 16 15.1 23.7 7.9 12.2 16.1 24.7 23.4 37.8.8 1.4.3 3.3-1.2 4.1-1.5.8-3.3.3-4.1-1.2-7.1-12.8-15.3-25.3-23.1-37.4-5.1-7.7-10.3-15.8-15.2-23.8-7.5-12.3-19.8-27.7-35.9-31.8-8.3-2.1-20.1-3.3-26.2.2-9.6 5.5-14.7 13.5-14.8 23.2-.1 12.2 7.9 25.3 20 32.5 6.1 3.7 15.2 7.9 23.9 12.1 6.2 2.9 12.1 5.7 16.6 8.1 2.6 1.4 5.3 2.9 7.8 4.4 6.1 3.5 11.9 6.8 18.3 9.2 1.5.6 2.3 2.3 1.7 3.9-.4 1-1.5 1.7-2.7 1.7zM339.2 165.9c-1.1 0-2.1-.6-2.6-1.6-.8-1.5-.3-3.3 1.2-4.1 25.7-13.9 44.1-29.4 53.2-44.7 11.8-19.8 15.5-45.9 9.3-66.7-4.5-15.1-13.9-26.5-27.1-33.1-24.4-12-54.7-.7-70.8 15.9-24.6 25.4-36.9 62-45.6 94.6-.4 1.6-2.1 2.5-3.7 2.1-1.6-.4-2.5-2.1-2.1-3.7 9-33.3 21.6-70.8 47.1-97.2 17.6-18.2 50.8-30.3 77.8-17.1 14.8 7.3 25.3 20 30.2 36.7 6.6 22.3 2.7 50.3-9.9 71.4-9.8 16.5-28.5 32.2-55.5 46.9-.5.5-1 .6-1.5.6z" fill="#ffad46" class="fill-000000"></path><path d="M270.7 165.9c-1.1 0-2.2-.6-2.7-1.7-.7-1.5-.1-3.3 1.4-4 18.6-8.9 30.8-15.3 47.7-24.3 2.8-1.5 5.7-3.1 8.8-4.7 12.7-6.7 28.9-18.1 34-33.8 2.6-8.1 4.5-19.9 1.4-26.2-4.9-9.9-12.6-15.5-22.2-16.2-12.2-.9-25.7 6.3-33.7 18-4 5.9-8.9 14.6-13.5 23.1-3.3 6-6.4 11.7-9.1 16-5.2 8.4-14.2 26-18.3 34.9-.7 1.5-2.5 2.2-4 1.5-1.5-.7-2.2-2.5-1.5-4 4.1-9.1 13.3-27 18.6-35.6 2.6-4.2 5.7-9.8 9-15.8 4.7-8.6 9.6-17.5 13.8-23.6 9.2-13.3 24.9-21.6 39.1-20.5 11.7.8 21.3 7.8 27.1 19.5 4.9 9.9.4 26-1.1 30.7-5.7 17.7-23.2 30.1-36.9 37.3-3.1 1.6-6 3.2-8.8 4.7-16.3 8.7-29.2 15.5-48 24.4-.2.2-.7.3-1.1.3z" fill="#ffad46" class="fill-000000"></path><path d="M439.2 263.8c-3.4 0-6.8-.2-10-.3-2.6-.1-5.1-.2-7.2-.2h-.1c-8.3 0-15.6-.4-22.6-.8-7-.4-14.2-.8-22.3-.8h-76.1c-1.7 0-3-1.3-3-3s1.3-3 3-3H377c8.3 0 15.6.4 22.6.8 7 .4 14.2.8 22.3.8h.1c2.2 0 4.7.1 7.4.3 8.3.4 18.6.9 24.4-1.9 1-.5 1.9-1.1 2.5-2 2.2-2.8 2.4-7.4 2.4-11.6 0-6.9.2-14 .4-20.8.4-11 .8-22.4-.1-33.5-1-13-7.2-20.1-18.2-21.2-10.4-1-21.4-.7-32.1-.3-5.3.2-10.8.4-16.1.4l-304.2.1c-2 0-4.1 0-6.1-.1-4-.1-8.1-.2-12 .1-14.2 1.1-17.2 12.3-17.2 21.6v51.4c0 2.1-.2 4.2-.4 6.2-.1 1.3-.3 2.6-.3 3.9-.1 1.1 0 3.1 1 4.1.5.5 1.3.8 2 1.1 6.1 2.4 12.7 2 19.7 1.5l2-.1c6.2-.4 12.5-.4 18.6-.4h5.1c17.3-.1 34.7-.1 52-.1H229c1.7 0 3 1.3 3 3s-1.3 3-3 3h-76.2c-17.3 0-34.7.1-52 .1h-5.1c-6 0-12.2 0-18.2.4l-2 .1c-7.3.5-14.9 1-22.3-1.9-1.3-.5-2.8-1.2-4-2.4-2-2-3-5-2.8-8.7.1-1.4.2-2.8.4-4.2.2-1.9.4-3.7.4-5.5v-51.4c0-16.5 8.3-26.5 22.8-27.6 4.2-.3 8.4-.2 12.6-.1 2 0 4 .1 6 .1l304.2-.1c5.2 0 10.7-.2 15.9-.4 10.9-.4 22.1-.7 32.8.3 14 1.4 22.4 10.9 23.6 26.7.9 11.4.5 23 .1 34.2-.2 6.7-.5 13.7-.4 20.5 0 5.2-.2 11-3.7 15.4-1.2 1.5-2.8 2.7-4.6 3.6-4.7 2.1-11 2.7-17.3 2.7z" fill="#ffad46" class="fill-000000"></path><path d="M229.1 504c-.8 0-1.6-.3-2.1-.9s-.9-1.3-.9-2.1l-.1-337.1c0-.8.3-1.6.9-2.1.6-.6 1.3-.9 2.1-.9h71c1.7 0 3 1.3 3 3V501c0 1.7-1.3 3-3 3h-70.9zm2.8-337.1L232 498h65l-.1-331.1h-65zM306.7 157.1h-.5c-3.7-.6-7.1-2.7-9.3-5.7-1-1.3-.7-3.2.7-4.2 1.3-1 3.2-.7 4.2.7 1.3 1.7 3.3 3 5.4 3.3 1.6.3 2.7 1.8 2.5 3.4-.3 1.5-1.6 2.5-3 2.5z" fill="#ffad46" class="fill-000000"></path><path d="M416.2 507.1c-4.3 0-8.2-.4-11.2-.7-10.6-1.1-21.7-.9-32.4-.7-4 .1-8.1.1-12.1.1l-243.3.1c-1.9 0-3.8 0-5.7.1-13.7.2-29.3.5-40.4-10.1-12.2-11.7-10.6-36-9.3-55.5.4-5.4.7-10.5.7-14.7L62 260.9c0-1.7 1.3-3 3-3s3 1.3 3 3l.6 164.8c0 4.4-.3 9.6-.7 15.1-1.2 18.3-2.7 41 7.4 50.7 9.3 8.9 22.9 8.7 36.1 8.4 2 0 3.9-.1 5.8-.1l243.3-.1c4 0 8.1-.1 12-.1 10.9-.2 22.1-.4 33.1.7 10.2 1 21.8 1.6 29.6-4.2 9.2-6.9 13-19.9 11.6-39.7-1-13.8-1.1-29.3-1.2-44.3 0-8.2-.1-15.9-.2-23.3-.2-7.6-.4-15.1-.6-22.5-.8-32-1.6-62.3-1.6-94.7v-8.7c0-1.7 1.3-3 3-3s3 1.3 3 3v8.7c0 32.3.8 62.6 1.6 94.5.2 7.4.4 14.9.6 22.5.2 7.4.2 15.2.2 23.4.1 14.9.1 30.3 1.1 43.9 1.6 22-2.9 36.7-13.9 44.9-6.6 5.2-15.1 6.3-22.6 6.3z" fill="#ffad46" class="fill-000000"></path></svg>