<svg viewBox="0 0 48 48" xml:space="preserve" xmlns="http://www.w3.org/2000/svg"><g fill="#ffffff" class="fill-241f20"><path d="M32.625 11.344H29V2.281H19v9.063h-3.875l8.75 10.5zM24.598 37.099v-1.637c1.846-.321 2.857-1.541 2.857-2.97 0-1.445-.771-2.328-2.681-3.002-1.365-.514-1.927-.852-1.927-1.381 0-.449.337-.898 1.38-.898 1.157 0 1.896.369 2.312.546l.466-1.814c-.529-.257-1.253-.481-2.328-.529V24h-1.572v1.525c-1.718.338-2.714 1.444-2.714 2.857 0 1.557 1.173 2.359 2.89 2.938 1.188.4 1.702.786 1.702 1.396 0 .643-.626.995-1.541.995-1.045 0-1.991-.337-2.665-.706l-.482 1.879c.61.353 1.653.642 2.729.689v1.524h1.574z"></path><path d="m34 15.719-2.655 3.094h8.768a3.923 3.923 0 0 0-.113.906 4 4 0 0 0 4.834 3.91v12.18A4 4 0 0 0 40 39.719c0 .196.03.385.058.573H7.942c.028-.188.058-.376.058-.572a4 4 0 0 0-4-4c-.157 0-.306.028-.458.046V23.672c.152.018.301.047.458.047a4 4 0 0 0 4-4c0-.313-.044-.614-.112-.906h8.587L14 15.719H0v28h3.99l.01.001.01-.001H48v-28H34z"></path></g></svg>