<svg viewBox="0 0 75 75" xml:space="preserve" xmlns="http://www.w3.org/2000/svg"><path d="M22.655 12.158a.748.748 0 0 1-.75-.749.75.75 0 0 1 .353-.637c.09-.057.186-.111.28-.163a.75.75 0 1 1 .72 1.315c-.069.038-.14.078-.206.119a.733.733 0 0 1-.397.115zM20.64 16.393a.75.75 0 0 1-.75-.745v-.002a7.706 7.706 0 0 1 .044-.882.75.75 0 1 1 1.492.162c-.025.233-.037.47-.036.715a.751.751 0 0 1-.746.753l-.004-.001z" fill="#ffad46" class="fill-44a4e0"></path><path d="M20.988 14.262a.75.75 0 0 1-.702-1.015c.095-.25.202-.486.329-.716a.75.75 0 1 1 1.314.722c-.092.168-.17.342-.24.526a.75.75 0 0 1-.701.483z" fill="#ffad46" class="fill-44a4e0"></path><path d="M21.415 13.396a.75.75 0 0 1-.631-1.155c.192-.299.391-.552.607-.775a.75.75 0 0 1 1.08 1.041c-.153.16-.292.338-.424.545a.751.751 0 0 1-.632.344z" fill="#ffad46" class="fill-44a4e0"></path><path d="M20.701 15.381a.75.75 0 0 1-.743-.854 6.16 6.16 0 0 1 .233-1.028l.001-.003a.75.75 0 0 1 1.428.458 4.447 4.447 0 0 0-.178.781v.002a.749.749 0 0 1-.741.644zM23.519 11.732a.752.752 0 0 1-.75-.751.75.75 0 0 1 .495-.705l.255.706-.197-.729c.058-.024.116-.047.176-.067a.75.75 0 1 1 .463 1.427l-.188.074a.732.732 0 0 1-.254.045zM25.813 11.389h-.025l-.138-.003a.75.75 0 0 1 0-1.5 1.64 1.64 0 0 1 .148-.008c.414 0 .765.336.765.75a.758.758 0 0 1-.75.761zM21.961 12.703a.748.748 0 0 1-.584-1.22.926.926 0 0 1 .059-.066l.015-.015a2.081 2.081 0 0 1 .104-.085.756.756 0 0 1 1.032.154.748.748 0 0 1 .051.84.761.761 0 0 1-.167.193l-.001.001-.004.003a.746.746 0 0 1-.505.195z" fill="#ffad46" class="fill-44a4e0"></path><path d="M24.724 11.435c-.374 0-.732-.268-.784-.643a.964.964 0 0 1-.008-.119c0-.362.233-.671.604-.723l.166-.018c.412-.038.814.26.854.669a.832.832 0 0 1 .004.085c0 .373-.245.688-.624.73l-.105.01a.662.662 0 0 1-.107.009zM32.365 23.965H23.64a.75.75 0 0 1-.6-.3c-1.956-2.61-3.073-5.392-3.146-7.833a.752.752 0 0 1 .219-.553.771.771 0 0 1 .552-.219c3.225.095 6.995 1.998 10.083 5.088.806.805 1.555 1.69 2.227 2.632a.752.752 0 0 1 .057.779.751.751 0 0 1-.667.406zm-8.344-1.5h6.818c-.367-.438-.75-.858-1.149-1.256-2.511-2.512-5.582-4.208-8.222-4.577.258 1.825 1.159 3.892 2.553 5.833z" fill="#ffad46" class="fill-44a4e0"></path><path d="M42.638 23.965H32.364a.749.749 0 0 1-.611-.315 19.215 19.215 0 0 0-2.064-2.441c-2.79-2.791-6.268-4.573-9.078-4.65a.75.75 0 0 1-.729-.729c-.051-1.82.482-3.342 1.542-4.401 1.018-1.018 2.457-1.555 4.161-1.555 3.274 0 7.137 1.907 10.334 5.102a20.724 20.724 0 0 1 1.581 1.779 20.603 20.603 0 0 1 1.582-1.779c3.197-3.195 7.06-5.102 10.334-5.102 1.705 0 3.144.538 4.162 1.555 1.057 1.057 1.59 2.579 1.541 4.4a.75.75 0 0 1-.729.729c-2.812.08-6.29 1.861-9.077 4.65a19.392 19.392 0 0 0-2.065 2.442.747.747 0 0 1-.61.315zm-9.891-1.5h9.509a20.742 20.742 0 0 1 1.997-2.317c2.858-2.86 6.298-4.702 9.351-5.037-.083-1.092-.454-1.989-1.086-2.622-.73-.73-1.803-1.116-3.101-1.116-2.842 0-6.396 1.787-9.274 4.663-.73.73-1.415 1.539-2.033 2.402-.282.393-.938.393-1.22 0a19.414 19.414 0 0 0-2.032-2.402c-2.877-2.875-6.431-4.662-9.273-4.662-1.298 0-2.371.386-3.101 1.116-.633.633-1.004 1.531-1.087 2.621 3.052.333 6.492 2.175 9.352 5.037a20.732 20.732 0 0 1 1.998 2.317z" fill="#ffad46" class="fill-44a4e0"></path><path d="M52.346 12.16a.753.753 0 0 1-.405-.119l-.159-.095-.008-.004-.033-.019v-.001c-.33-.214-.464-.661-.271-1.007.202-.36.63-.503.991-.307l.012.007.111.063.016.009.05.03a.75.75 0 0 1-.285 1.444l-.019-.001zM54.36 16.393h-.007a.75.75 0 0 1-.743-.755c.002-.244-.01-.48-.036-.712a.75.75 0 0 1 1.492-.162c.031.289.048.584.044.888a.75.75 0 0 1-.75.741z" fill="#ffad46" class="fill-44a4e0"></path><path d="M54.012 14.262a.75.75 0 0 1-.703-.488 4.206 4.206 0 0 0-.239-.524.752.752 0 0 1 .301-1.017.75.75 0 0 1 1.017.3c.125.23.235.469.327.718a.751.751 0 0 1-.703 1.011z" fill="#ffad46" class="fill-44a4e0"></path><path d="M53.585 13.398a.75.75 0 0 1-.633-.347 3.362 3.362 0 0 0-.42-.54.75.75 0 0 1 1.076-1.046c.219.223.418.479.611.78a.75.75 0 0 1-.634 1.153z" fill="#ffad46" class="fill-44a4e0"></path><path d="M54.3 15.381a.75.75 0 0 1-.742-.645 4.598 4.598 0 0 0-.179-.783v-.002a.75.75 0 0 1 1.429-.457c.088.274.158.561.208.854a.74.74 0 0 1 .055.283c0 .417-.318.728-.757.75H54.3zM51.467 11.73a.718.718 0 0 1-.257-.049 3.354 3.354 0 0 1-.089-.037.81.81 0 0 1-.555-.75c0-.07.011-.141.033-.21.128-.394.512-.626.905-.498.066.021.13.047.193.073a.81.81 0 0 1 .494.729.684.684 0 0 1-.05.258c-.119.297-.383.484-.674.484zM49.187 11.387a.75.75 0 0 1-.75-.75v-.01a.75.75 0 0 1 .699-.748 2.184 2.184 0 0 1 .225.006.75.75 0 0 1-.004 1.5h-.007l-.137.001-.026.001zM53.083 12.72a.828.828 0 0 1-.515-.184.743.743 0 0 1-.193-.234l-.001-.001-.026-.054-.006-.016a.751.751 0 0 1 .231-.869.748.748 0 0 1 1.16.307c.167.319.068.68-.215.904a.695.695 0 0 1-.435.147z" fill="#ffad46" class="fill-44a4e0"></path><path d="M50.364 11.443a.737.737 0 0 1-.104-.007l-.091-.009-.102-.01a.75.75 0 0 1 .161-1.492l.238.024a.75.75 0 0 1-.102 1.494zM41.479 22.686a.75.75 0 0 1-.75-.75 3.233 3.233 0 0 0-3.229-3.229 3.232 3.232 0 0 0-3.228 3.229.75.75 0 0 1-1.5 0 4.734 4.734 0 0 1 4.728-4.729 4.734 4.734 0 0 1 4.729 4.729.75.75 0 0 1-.75.75z" fill="#ffad46" class="fill-44a4e0"></path><path d="M44.034 34.93H30.966a.75.75 0 0 1-.75-.75V23.215a.75.75 0 0 1 .75-.75h13.068a.75.75 0 0 1 .75.75V34.18a.75.75 0 0 1-.75.75zm-12.318-1.5h11.568v-9.465H31.716v9.465z" fill="#ffad46" class="fill-44a4e0"></path><path d="M63.943 34.93H11.057a.75.75 0 0 1-.75-.75V23.215a.75.75 0 0 1 .75-.75h52.887a.75.75 0 0 1 .75.75V34.18a.752.752 0 0 1-.751.75zm-52.136-1.5h51.387v-9.465H11.807v9.465z" fill="#ffad46" class="fill-44a4e0"></path><path d="M51.358 23.965h-8.722a.75.75 0 0 1-.61-1.186 20.804 20.804 0 0 1 2.227-2.632c3.087-3.09 6.856-4.993 10.082-5.088a.747.747 0 0 1 .771.772c-.073 2.443-1.191 5.226-3.148 7.834a.749.749 0 0 1-.6.3zm-7.194-1.5h6.815c1.395-1.939 2.296-4.007 2.555-5.833-2.64.37-5.711 2.065-8.22 4.577a18.59 18.59 0 0 0-1.15 1.256zM58.841 65.127H16.159a.75.75 0 0 1-.75-.75V34.18a.75.75 0 0 1 .75-.75h42.682a.75.75 0 0 1 .75.75v30.197a.75.75 0 0 1-.75.75zm-41.932-1.5h41.182V34.93H16.909v28.697z" fill="#ffad46" class="fill-44a4e0"></path><path d="M59.217 45.434a.744.744 0 0 1-.53-.22l-.376-.376a.75.75 0 1 1 1.062-1.061l.375.376a.737.737 0 0 1 .173.269l.001.002v.002l.001.002.001.002V44.439l.001.002v.016l.001.002v.006l.001.003v.003l.001.002V44.482l.001.002V44.557a.75.75 0 0 1-.557.827H59.362l-.005.001h-.008l-.004.001h-.006c-.022.043-.072.048-.122.048z" fill="#ffad46" class="fill-44a4e0"></path><path d="M60.846 45.693a4.008 4.008 0 0 1-2.469-.855.748.748 0 0 1-.286-.589V34.18a.75.75 0 0 1 .75-.75h1.021c.199 0 .39.079.53.22l4.255 4.252c.936.938 2.567.937 3.502 0a.751.751 0 0 1 1.061 1.061l-5.573 5.574a3.92 3.92 0 0 1-2.791 1.156zm-1.255-1.839c.943.549 2.213.397 2.986-.378l3.373-3.373a3.945 3.945 0 0 1-2.363-1.142l-3.996-3.993v8.886zM41.583 65.127h-8.166a.75.75 0 0 1-.75-.75V34.18a.75.75 0 0 1 .75-.75h8.166a.75.75 0 0 1 .75.75v30.197a.75.75 0 0 1-.75.75zm-7.416-1.5h6.666V34.93h-6.666v28.697zM14.156 45.694a3.922 3.922 0 0 1-2.793-1.159l-5.57-5.57-.004-.004a.752.752 0 0 1 0-1.061.752.752 0 0 1 1.061 0c.936.937 2.567.937 3.503 0l4.254-4.252a.75.75 0 0 1 .53-.22h1.021a.75.75 0 0 1 .75.75v10.07c0 .23-.105.447-.286.589-.7.554-1.576.857-2.466.857zm-5.105-5.591 3.373 3.373c.773.775 2.042.926 2.985.379v-8.886l-3.995 3.993a3.947 3.947 0 0 1-2.363 1.141z" fill="#ffad46" class="fill-44a4e0"></path></svg>