<svg viewBox="0 0 512 512" xml:space="preserve" xmlns="http://www.w3.org/2000/svg" fill-rule="evenodd" clip-rule="evenodd" stroke-linejoin="round" stroke-miterlimit="2"><g display="inline"><path d="M0 166.206c1.848 0 3.727-.344 5.548-1.069L245.19 69.65l-10.955 25.476c-3.272 7.61.244 16.433 7.855 19.706a14.96 14.96 0 0 0 5.919 1.224c5.812 0 11.345-3.4 13.787-9.079l25.26-58.739c.019-.046.032-.092.05-.137.172-.41.33-.825.464-1.249.073-.226.123-.455.184-.682.065-.245.139-.487.191-.735.056-.26.09-.521.132-.781.035-.222.078-.443.104-.668.029-.258.039-.515.054-.773.014-.233.036-.463.038-.696.003-.246-.012-.488-.02-.732-.009-.246-.012-.492-.032-.739-.021-.239-.06-.475-.091-.711-.033-.248-.059-.496-.106-.744-.048-.267-.119-.53-.183-.793-.051-.212-.092-.425-.153-.636a14.428 14.428 0 0 0-.478-1.4v-.002a15.594 15.594 0 0 0-.617-1.348c-.104-.2-.224-.387-.335-.581-.132-.229-.258-.463-.403-.686-.141-.219-.298-.423-.451-.633-.134-.186-.262-.376-.406-.557-.161-.201-.335-.389-.506-.582-.155-.174-.304-.354-.467-.521-.171-.176-.354-.337-.534-.504-.179-.167-.353-.339-.543-.498-.185-.157-.381-.297-.574-.444-.196-.15-.387-.305-.592-.447-.23-.158-.471-.297-.71-.442-.179-.11-.352-.227-.538-.33-.434-.24-.88-.46-1.336-.656L220.461 3.272c-7.607-3.272-16.433.244-19.706 7.854-3.273 7.61.244 16.433 7.854 19.706l25.468 10.952-239.634 95.484c-7.695 3.066-11.448 11.791-8.382 19.487 2.341 5.874 7.979 9.451 13.939 9.451" transform="translate(84.93 29.634)" fill-rule="nonzero" fill="#09eb1c" class="fill-000000"></path><path d="M0 104.978c0-9.826 7.994-17.819 17.82-17.819s17.82 7.993 17.82 17.819v102.511H0Zm138.79-63.109c0-4.77 1.85-9.243 5.225-12.613 3.353-3.358 7.826-5.208 12.595-5.208 4.763 0 9.232 1.85 12.602 5.226a17.675 17.675 0 0 1 5.218 12.595v165.62h-35.64zm138.78-52.88c0-9.826 7.994-17.821 17.82-17.821s17.82 7.995 17.82 17.821v218.5h-35.64zm138.79-73.681c0-9.826 7.994-17.819 17.82-17.819S452-94.518 452-84.692v292.181h-35.64zm17.82-47.819c-26.368 0-47.82 21.452-47.82 47.819v292.181h-43.15v-218.5c0-26.368-21.452-47.821-47.82-47.821s-47.82 21.453-47.82 47.821v218.5h-43.14V41.869c0-12.786-4.98-24.799-14.005-33.808-9.02-9.036-21.029-14.013-33.815-14.013-12.792 0-24.805 4.977-33.808 13.995-9.036 9.022-14.012 21.035-14.012 33.826v165.62H65.64V104.978c0-26.367-21.452-47.819-47.82-47.819S-30 78.611-30 104.978v117.511c0 8.284 6.716 15 15 15h482c8.284 0 15-6.716 15-15V-84.692c0-26.367-21.452-47.819-47.82-47.819" transform="translate(30 242.828)" fill-rule="nonzero" fill="#09eb1c" class="fill-000000"></path></g></svg>