<?xml version="1.0" ?><svg height="295px" version="1.1" viewBox="0 0 191 295" width="191px" xmlns="http://www.w3.org/2000/svg" xmlns:xlink="http://www.w3.org/1999/xlink"><title/><desc/><defs/><g fill="#fff" fill-rule="evenodd" id="Page-1" stroke="none" stroke-width="1"><g fill-rule="nonzero" id="share"><path d="M147.922,210.005 C124.532,210.005 105.504,229.034 105.504,252.423 C105.504,275.812 124.532,294.842 147.922,294.842 C171.312,294.842 190.341,275.813 190.341,252.423 C190.341,229.033 171.312,210.005 147.922,210.005 Z M147.922,282.843 C131.15,282.843 117.504,269.197 117.504,252.424 C117.504,235.651 131.15,222.006 147.922,222.006 C164.695,222.006 178.341,235.652 178.341,252.424 C178.341,269.196 164.696,282.843 147.922,282.843 Z" fill="#000000" id="Shape"/><path d="M77.567,109.567 C79.102,109.567 80.638,108.981 81.809,107.81 L117.59,72.03 C125.298,79.924 136.044,84.838 147.923,84.838 C171.313,84.838 190.342,65.809 190.342,42.42 C190.342,19.031 171.312,0 147.922,0 C124.532,0 105.504,19.029 105.504,42.419 C105.504,49.569 107.289,56.307 110.427,62.223 L73.325,99.324 C70.981,101.667 70.981,105.466 73.324,107.809 C74.496,108.981 76.031,109.567 77.567,109.567 Z M147.922,12 C164.695,12 178.341,25.646 178.341,42.419 C178.341,59.192 164.695,72.837 147.922,72.837 C131.15,72.837 117.504,59.191 117.504,42.419 C117.504,25.647 131.15,12 147.922,12 Z" fill="#000000" id="Shape"/><path d="M105.908,214.935 L70.544,179.572 C79.592,171.787 85.338,160.266 85.338,147.421 C85.338,124.031 66.31,105.002 42.92,105.002 C19.53,105.002 0.501,124.031 0.501,147.421 C0.501,170.811 19.531,189.84 42.92,189.84 C49.059,189.84 54.892,188.519 60.164,186.162 L97.423,223.42 C98.594,224.591 100.13,225.177 101.665,225.177 C103.2,225.177 104.736,224.591 105.907,223.42 C108.251,221.077 108.251,217.278 105.908,214.935 Z M12.501,147.421 C12.501,130.648 26.147,117.002 42.92,117.002 C59.692,117.002 73.338,130.648 73.338,147.421 C73.338,164.194 59.693,177.84 42.92,177.84 C26.147,177.84 12.501,164.194 12.501,147.421 Z" fill="#FB4A5E" id="Shape"/></g></g></svg>