<svg viewBox="0 0 512 512" xmlns="http://www.w3.org/2000/svg"><path d="M444.39 315.866a75.7 75.7 0 0 1-61.386 61.923l9.422-20.615-13.643-6.234-16.3 35.666a7.5 7.5 0 0 0 2.865 9.488l33.311 20.69 7.914-12.743-19.081-11.851a90.773 90.773 0 0 0 72.967-89.575l-15 .092a76.267 76.267 0 0 1-1.068 13.16ZM185.17 198.689a75.695 75.695 0 0 1 61.798-61.99l-9.834 21.516 13.642 6.236 16.302-35.665a7.5 7.5 0 0 0-2.864-9.49l-33.313-20.689-7.914 12.743 18.06 11.217a90.786 90.786 0 0 0-71.945 89.373l15-.092a76.353 76.353 0 0 1 1.068-13.16ZM188.713 441.221l37.358-12.022v-9.576l-37.358 12.022v9.576zM188.713 425.929l37.358-12.022v-9.577l-37.358 12.023v9.576zM481.773 120.636a78.605 78.605 0 1 0-150.93 30.77 78.602 78.602 0 1 0 144.654-.006 78.162 78.162 0 0 0 6.276-30.764ZM403.17 184.24a63.605 63.605 0 1 1 63.604-63.605 63.677 63.677 0 0 1-63.604 63.605Z" fill="#13afd6" class="fill-000000"></path><path d="M405.865 109.553h-5.354a5.533 5.533 0 0 1 0-11.066h24.396v-12.5H409.42V75.302h-12.5v11.046a18.033 18.033 0 0 0 3.59 35.705h5.355a6.964 6.964 0 1 1 0 13.928h-24.432v12.5h14.072v10.686h12.5v-10.81a19.461 19.461 0 0 0-2.14-38.805ZM309.563 307.577l-.008-.01a19.203 19.203 0 0 0-8.728-5.562L182.26 266.168a31.483 31.483 0 0 0-18.375-.002l-118.581 35.84a19.2 19.2 0 0 0-8.72 5.561c-.017.02-.031.041-.048.06v-.002a19.123 19.123 0 0 0-4.81 12.672v94.282a19.001 19.001 0 0 0 13.562 18.283l118.544 36.002a31.63 31.63 0 0 0 18.455.004l118.656-36.04a19 19 0 0 0 13.461-18.25v-94.28a19.116 19.116 0 0 0-4.835-12.714ZM167.065 457.306 48.773 421.38a7.07 7.07 0 0 1-5.047-6.8v-94.282a7.048 7.048 0 0 1 .15-1.415c-.2-.11-.375-.237-.563-.356l123.752 37.59ZM58.427 310.577l108.94-32.928a19.564 19.564 0 0 1 11.414.003l108.93 32.924-34.879 10.594-53.24-16.047a3.234 3.234 0 0 0-1.863-.017l-27.963 7.94a1.724 1.724 0 0 0-.026 3.308l49.734 14.948-46.408 14.096ZM302.404 414.58a7.052 7.052 0 0 1-4.973 6.775l-118.366 35.95V356.117l50.597-15.368v37.207a3.331 3.331 0 0 0 4.213 3.212l26.866-7.4a3.328 3.328 0 0 0 2.447-3.212v-39.99l39.038-11.856a7.132 7.132 0 0 1 .178 1.588Z" fill="#13afd6" class="fill-000000"></path></svg>